# xmcd
#
# Track frame offsets:
#	150
#	17892
#	34791
#	48736
#	67225
#	82481
#	102276
#	123523
#	161503
#	174419
#	207006
#	227746
#	251111
#	279630
#	299317
#	316131
#
# Disc length: 4455 seconds
#
# Revision: 1
# Processed by: cddbd v1.4PL0 Copyright (c) Steve Scherf et al.
# Submitted via: audiograbber 1.81.02
#
DISCID=f0116510
DTITLE=Slavko - Traditional Blues
DYEAR=2002
DGENRE=Blues
TTITLE0=You are the one black Rath
TTITLE1=O Red
TTITLE2=Bye, bye Baby Blues
TTITLE3=Tom Rusian Blues
TTITLE4=I'll turn your money green
TTITLE5=Keep your hands of
TTITLE6=Peter's Blues
TTITLE7=Slavko's Blues
TTITLE8=Nobody love's you
TTITLE9=Louise
TTITLE10=Have no mercy
TTITLE11=Roul'd and tumbled
TTITLE12=Sweet home Chicago
TTITLE13=This Train
TTITLE14=Ragged and dirty
TTITLE15=Old time Blues
EXTD=mit Peter Krause\nKarl Schlagenhaufer\nUli Lehmann
EXTT0=
EXTT1=
EXTT2=
EXTT3=
EXTT4=
EXTT5=
EXTT6=
EXTT7=
EXTT8=
EXTT9=
EXTT10=
EXTT11=
EXTT12=
EXTT13=
EXTT14=
EXTT15=
PLAYORDER=
